<svg xmlns="http://www.w3.org/2000/svg" version="1.1" xmlns:xlink="http://www.w3.org/1999/xlink" xmlns:svgjs="http://svgjs.dev/svgjs" width="1500" height="1500" viewBox="0 0 1500 1500"><rect width="1500" height="1500" fill="#ffffff"></rect><g transform="matrix(0.6666666666666666,0,0,0.6666666666666666,249.39393939393932,633.751229661243)"><svg viewBox="0 0 396 92" data-background-color="#ffffff" preserveAspectRatio="xMidYMid meet" height="348" width="1500" xmlns="http://www.w3.org/2000/svg" xmlns:xlink="http://www.w3.org/1999/xlink"><g id="tight-bounds" transform="matrix(1,0,0,1,0.24000000000003752,0.09865030674848185)"><svg viewBox="0 0 395.5199999999999 91.80269938650305" height="91.80269938650305" width="395.5199999999999"><g><svg viewBox="0 0 395.5199999999999 91.80269938650305" height="91.80269938650305" width="395.5199999999999"><g><svg viewBox="0 0 395.5199999999999 91.80269938650305" height="91.80269938650305" width="395.5199999999999"><g id="textblocktransform"><svg viewBox="0 0 395.5199999999999 91.80269938650305" height="91.80269938650305" width="395.5199999999999" id="textblock"><g><svg viewBox="0 0 395.5199999999999 91.80269938650305" height="91.80269938650305" width="395.5199999999999"><g transform="matrix(1,0,0,1,0,0)"><svg width="395.5199999999999" viewBox="3.3 -38.18 167.11999999999998 38.79" height="91.80269938650305" data-palette-color="#471aa0"><path d="M12.01 0.61L12.01 0.61Q3.32 0.61 3.32-9.91L3.32-9.91 3.3-22.31Q3.3-22.9 3.54-23.22L3.54-23.22Q4.57-24.56 6.54-26.12L6.54-26.12Q6.88-26.37 7.15-26.37L7.15-26.37Q7.47-26.37 7.76-26.12L7.76-26.12Q8.81-25.32 9.53-24.61 10.25-23.9 10.77-23.22L10.77-23.22Q11.01-22.9 11.01-22.31L11.01-22.31 11.01-10.6Q11.01-5.3 15.21-5.3L15.21-5.3Q17.29-5.3 18.53-6.75 19.78-8.2 19.78-10.69L19.78-10.69 19.78-22.31Q19.78-22.9 20.02-23.22L20.02-23.22Q21.04-24.56 23.02-26.12L23.02-26.12Q23.36-26.37 23.63-26.37L23.63-26.37Q23.95-26.37 24.24-26.12L24.24-26.12Q25.29-25.32 26.01-24.61 26.73-23.9 27.25-23.22L27.25-23.22Q27.49-22.9 27.49-22.31L27.49-22.31 27.49-1.12Q27.49-0.66 27.17-0.33 26.86 0 26.37 0L26.37 0 22.71 0Q22.31 0 22.01-0.11 21.7-0.22 21.44-0.54L21.44-0.54 19.92-2.49 19.75-2.49Q19.36-1.93 18.54-1.2 17.72-0.46 16.17 0.07 14.62 0.61 12.01 0.61ZM58.25-15.55L58.25-15.55 58.25-1.29Q58.25-0.56 57.94-0.28 57.64 0 56.91 0L56.91 0 51.88 0Q51.14 0 50.84-0.28 50.53-0.56 50.53-1.29L50.53-1.29 50.53-14.28Q50.53-16.94 49.41-18.16 48.29-19.38 46.36-19.38L46.36-19.38Q44.43-19.38 43.39-18.55 42.36-17.72 41.79-16.46L41.79-16.46 41.79-1.29Q41.79-0.56 41.49-0.28 41.18 0 40.45 0L40.45 0 35.42 0Q34.69 0 34.38-0.28 34.08-0.56 34.08-1.29L34.08-1.29 34.08-21.75Q34.08-22.34 34.32-22.66L34.32-22.66Q34.84-23.34 35.56-24.05 36.28-24.76 37.33-25.56L37.33-25.56Q37.64-25.81 37.94-25.81L37.94-25.81Q38.21-25.81 38.55-25.56L38.55-25.56Q39.57-24.76 40.31-24.02 41.04-23.29 41.6-22.51L41.6-22.51 41.72-22.51Q42.14-23.05 42.97-23.77 43.8-24.49 45.3-25.05 46.8-25.61 49.14-25.61L49.14-25.61Q51.44-25.61 53.51-24.68 55.59-23.75 56.92-21.56 58.25-19.36 58.25-15.55ZM63.72-33.2L63.72-33.2Q63.72-33.52 63.91-33.76 64.11-34.01 64.42-34.4L64.42-34.4Q65.11-35.18 66.01-36.05 66.91-36.91 67.84-37.72L67.84-37.72Q68.43-38.18 68.72-38.18L68.72-38.18Q69.01-38.18 69.62-37.72L69.62-37.72Q71.6-36.01 72.99-34.4L72.99-34.4Q73.31-34.03 73.52-33.78 73.73-33.52 73.73-33.2L73.73-33.2Q73.73-32.89 73.52-32.64 73.31-32.4 72.97-31.98L72.97-31.98Q72.31-31.23 71.43-30.36 70.55-29.49 69.62-28.71L69.62-28.71Q69.28-28.42 69.09-28.33 68.89-28.25 68.72-28.25L68.72-28.25Q68.55-28.25 68.37-28.33 68.18-28.42 67.79-28.71L67.79-28.71Q66.82-29.49 65.96-30.36 65.11-31.23 64.42-32.03L64.42-32.03Q64.11-32.42 63.91-32.65 63.72-32.89 63.72-33.2ZM72.55-23.71L72.55-1.29Q72.55-0.56 72.25-0.28 71.94 0 71.21 0L71.21 0 66.18 0Q65.45 0 65.14-0.28 64.84-0.56 64.84-1.29L64.84-1.29 64.84-23.71Q64.84-24.44 65.14-24.72 65.45-25 66.18-25L66.18-25 71.21-25Q71.94-25 72.25-24.72 72.55-24.44 72.55-23.71L72.55-23.71ZM86.91-22.17L86.91-20.36 87-20.36Q88.84-25.44 93.6-25.44L93.6-25.44Q94.21-25.44 94.6-25.38 94.99-25.32 95.13-25.27L95.13-25.27Q95.5-25.15 95.5-24.71L95.5-24.71 95.5-18.82Q95.5-18.07 94.62-18.41L94.62-18.41Q94.33-18.53 93.78-18.66 93.23-18.8 92.25-18.8L92.25-18.8Q89.74-18.8 88.32-16.96 86.91-15.11 86.91-11.94L86.91-11.94 86.91-1.29Q86.91-0.56 86.6-0.28 86.3 0 85.56 0L85.56 0 80.53 0Q79.8 0 79.5-0.28 79.19-0.56 79.19-1.29L79.19-1.29 79.19-21.75Q79.19-22.34 79.44-22.66L79.44-22.66Q79.95-23.34 80.67-24.05 81.39-24.76 82.44-25.56L82.44-25.56Q82.63-25.71 82.83-25.76 83.02-25.81 83.17-25.81L83.17-25.81Q83.51-25.81 83.85-25.56L83.85-25.56Q85.88-23.97 86.69-22.85L86.69-22.85Q86.91-22.56 86.91-22.17L86.91-22.17ZM105.61 0.61L105.61 0.61Q102.02 0.61 99.9-1.4 97.79-3.42 97.79-6.96L97.79-6.96Q97.79-8.79 98.46-10.36 99.14-11.94 100.81-13.15 102.48-14.36 105.5-15.09 108.51-15.82 113.2-15.94L113.2-15.94Q113.2-18.16 112.09-19.14 110.98-20.12 108.75-20.12L108.75-20.12Q106.75-20.12 105.48-19.43 104.21-18.75 103.9-18.51L103.9-18.51Q103.55-18.21 103.07-18.29L103.07-18.29Q102.41-18.38 101.66-18.63 100.92-18.87 100.06-19.19L100.06-19.19Q99.94-19.24 99.79-19.35 99.65-19.46 99.62-19.68L99.62-19.68Q99.62-19.8 99.65-19.98 99.67-20.17 99.77-20.65L99.77-20.65Q99.87-21.14 100.06-21.86 100.26-22.58 100.43-22.97L100.43-22.97Q100.65-23.39 101.16-23.75L101.16-23.75Q101.58-24.1 103.68-24.85 105.78-25.61 109.76-25.61L109.76-25.61Q120.72-25.61 120.72-14.94L120.72-14.94 120.72-1.12Q120.72-0.66 120.46-0.33 120.2 0 119.59 0L119.59 0 115.93 0Q115.54 0 115.24-0.11 114.93-0.22 114.66-0.54L114.66-0.54 113.15-2.49 112.98-2.49Q111.86-0.85 109.96-0.12 108.07 0.61 105.61 0.61ZM108.29-5.05L108.29-5.05Q110.54-5.05 111.68-6.2 112.83-7.35 113.15-8.57L113.15-8.57 113.15-11.28Q109.76-11.28 108.06-10.75 106.36-10.23 105.8-9.39 105.24-8.54 105.24-7.57L105.24-7.57Q105.24-6.15 106.12-5.6 107-5.05 108.29-5.05ZM137.19 0.61L137.19 0.61Q129.04 0.61 129.04-7.86L129.04-7.86 129.04-19.31 126.28-19.31Q125.55-19.31 125.27-19.62 124.99-19.92 124.99-20.65L124.99-20.65 124.99-23.66Q124.99-24.39 125.27-24.69 125.55-25 126.28-25L126.28-25 129.04-25 129.04-28.93Q129.04-29.52 129.28-29.83L129.28-29.83Q130.31-31.18 132.29-32.74L132.29-32.74Q132.63-32.98 132.9-32.98L132.9-32.98Q133.19-32.98 133.48-32.74L133.48-32.74Q134.53-31.93 135.25-31.23 135.97-30.52 136.49-29.83L136.49-29.83Q136.73-29.52 136.73-28.93L136.73-28.93 136.73-25 141.05-25Q141.78-25 142.07-24.69 142.35-24.39 142.35-23.66L142.35-23.66 142.35-20.65Q142.35-19.92 142.07-19.62 141.78-19.31 141.05-19.31L141.05-19.31 136.73-19.31 136.73-9.2Q136.73-5.3 139.56-5.3L139.56-5.3Q140-5.3 140.37-5.38 140.73-5.47 141-5.57L141-5.57Q141.52-5.76 141.72-5.71 141.93-5.66 142.1-5.18L142.1-5.18 143.52-1.39Q143.74-0.78 143.22-0.51L143.22-0.51Q142.86-0.34 141.45 0.13 140.05 0.61 137.19 0.61ZM159.85 0.61L159.85 0.61Q155.72 0.61 152.67-0.72 149.62-2.05 147.93-4.86 146.25-7.67 146.25-12.11L146.25-12.11Q146.25-18.77 149.67-22.19 153.09-25.61 158.75-25.61L158.75-25.61Q162.44-25.61 164.99-24.29 167.54-22.97 168.87-20.65 170.2-18.33 170.2-15.36L170.2-15.36Q170.2-12.45 168.71-11.3 167.22-10.16 164.36-10.16L164.36-10.16 153.89-10.16Q154.09-7.64 155.73-6.32 157.38-5 160.21-5L160.21-5Q162.46-5 163.82-5.68 165.17-6.35 165.71-6.74L165.71-6.74Q166.17-7.08 166.76-7.06L166.76-7.06Q167.22-7.06 168.09-6.87 168.95-6.69 169.81-6.2L169.81-6.2Q170.42-5.88 170.42-5.32L170.42-5.32Q170.42-5 170.3-4.42L170.3-4.42Q170.22-4.08 170.05-3.43 169.88-2.78 169.61-2.22L169.61-2.22Q169.47-1.95 169.15-1.71L169.15-1.71Q168.66-1.37 167.58-0.81 166.49-0.24 164.61 0.18 162.73 0.61 159.85 0.61ZM153.84-15.16L153.84-15.16 161.8-15.16Q163.05-15.16 163.05-16.31L163.05-16.31Q163.05-18.04 161.96-19.23 160.87-20.41 158.7-20.41L158.7-20.41Q156.33-20.41 155.22-18.9 154.11-17.38 153.84-15.16Z" opacity="1" transform="matrix(1,0,0,1,0,0)" fill="#471aa0" class="wordmark-text-0" data-fill-palette-color="primary" id="text-0"></path></svg></g></svg></g></svg></g></svg></g><g></g></svg></g><defs></defs></svg><rect width="395.5199999999999" height="91.80269938650305" fill="none" stroke="none" visibility="hidden"></rect></g></svg></g></svg>